<?xml version="1.0" encoding="UTF-8"?>
<svg width="1650px" height="500px" viewBox="0 0 1650 500" version="1.1" xmlns="http://www.w3.org/2000/svg" xmlns:xlink="http://www.w3.org/1999/xlink">
    <!-- Generator: Sketch 64 (93537) - https://sketch.com -->
    <title>Long-Tania_Dark</title>
    <desc>Created with Sketch.</desc>
    <g id="Long-Tania_Dark" stroke="none" stroke-width="1" fill="none" fill-rule="evenodd">
        <rect id="Bound" x="0" y="0" width="1650" height="500"></rect>
        <path d="M298.43425,482.472787 C282.189616,498.717421 255.85186,498.717421 239.607226,482.472787 C223.362591,466.228152 223.362591,439.890396 239.607226,423.645762 C252.217555,411.035432 270.910055,408.214206 286.241831,415.182085 L457.984941,243.438976 L250,35.4540346 L42.015059,243.438976 L135.614755,337.038672 L171.115221,301.538205 C166.879988,280.242964 165.052013,242.107326 195.11613,212.04321 C239.290486,167.868853 324.378997,169.059979 324.378997,169.059979 C324.378997,169.059979 325.570123,254.148489 281.395766,298.322846 C251.331649,328.386963 213.196012,326.558988 191.90077,322.323754 L152.935409,361.289115 C143.405223,370.819301 127.95374,370.819301 118.423554,361.289115 L118.345882,361.366787 L20.0270791,263.047984 C9.19732285,252.218228 9.19732285,234.659724 20.0270791,223.829967 L230.390992,13.4660547 C241.220748,2.63629849 258.779252,2.63629849 269.609008,13.4660547 L479.972921,223.829967 C490.802677,234.659724 490.802677,252.218228 479.972921,263.047984 L306.986495,436.03441 C313.841578,451.329196 310.99083,469.916207 298.43425,482.472787 Z" id="Icon" fill="#FBF9FF"></path>
        <path d="M811.382114,109.756098 L811.382114,172.357724 L738.211382,172.357724 L738.211382,394.308943 L673.170732,394.308943 L673.170732,172.357724 L600,172.357724 L600,109.756098 L811.382114,109.756098 Z M953.861789,191.056911 L1014.8374,191.056911 L1014.8374,394.308943 L953.861789,394.308943 L953.861789,375.203252 C940.447154,390.650407 920.528455,400 893.292683,400 C840.04065,400 796.138211,353.252033 796.138211,292.682927 C796.138211,232.113821 840.04065,185.365854 893.292683,185.365854 C920.528455,185.365854 940.447154,194.715447 953.861789,210.162602 L953.861789,191.056911 Z M905.487805,342.276423 C933.536585,342.276423 953.861789,323.170732 953.861789,292.682927 C953.861789,262.195122 933.536585,243.089431 905.487805,243.089431 C877.439024,243.089431 857.113821,262.195122 857.113821,292.682927 C857.113821,323.170732 877.439024,342.276423 905.487805,342.276423 Z M1183.73984,185.365854 C1224.79675,185.365854 1259.7561,214.634146 1259.7561,269.512195 L1259.7561,394.308943 L1198.78049,394.308943 L1198.78049,278.455285 C1198.78049,253.252033 1182.92683,241.463415 1163.41463,241.463415 C1141.05691,241.463415 1125.60976,254.471545 1125.60976,283.333333 L1125.60976,394.308943 L1064.63415,394.308943 L1064.63415,191.056911 L1125.60976,191.056911 L1125.60976,210.162602 C1136.58537,195.121951 1156.91057,185.365854 1183.73984,185.365854 Z M1337.19512,173.170732 C1317.27642,173.170732 1300.60976,156.504065 1300.60976,136.585366 C1300.60976,116.666667 1317.27642,100 1337.19512,100 C1357.11382,100 1373.78049,116.666667 1373.78049,136.585366 C1373.78049,156.504065 1357.11382,173.170732 1337.19512,173.170732 Z M1306.70732,394.308943 L1306.70732,191.056911 L1367.68293,191.056911 L1367.68293,394.308943 L1306.70732,394.308943 Z M1565.04065,191.056911 L1626.01626,191.056911 L1626.01626,394.308943 L1565.04065,394.308943 L1565.04065,375.203252 C1551.62602,390.650407 1531.70732,400 1504.47154,400 C1451.21951,400 1407.31707,353.252033 1407.31707,292.682927 C1407.31707,232.113821 1451.21951,185.365854 1504.47154,185.365854 C1531.70732,185.365854 1551.62602,194.715447 1565.04065,210.162602 L1565.04065,191.056911 Z M1516.66667,342.276423 C1544.71545,342.276423 1565.04065,323.170732 1565.04065,292.682927 C1565.04065,262.195122 1544.71545,243.089431 1516.66667,243.089431 C1488.61789,243.089431 1468.29268,262.195122 1468.29268,292.682927 C1468.29268,323.170732 1488.61789,342.276423 1516.66667,342.276423 Z" id="Tania" fill="#FBF9FF" fill-rule="nonzero"></path>
    </g>
</svg>