<?xml version="1.0" encoding="UTF-8"?>
<svg width="1050px" height="1050px" viewBox="0 0 1050 1050" version="1.1" xmlns="http://www.w3.org/2000/svg" xmlns:xlink="http://www.w3.org/1999/xlink">
    <!-- Generator: Sketch 64 (93537) - https://sketch.com -->
    <title>Icon-Tania_Dark</title>
    <desc>Created with Sketch.</desc>
    <g id="Icon-Tania_Dark" stroke="none" stroke-width="1" fill="none" fill-rule="evenodd">
        <g id="Icon-Tania">
            <rect id="Bound" x="0" y="0" width="1050" height="1050"></rect>
            <path d="M626.711926,1013.19285 C592.598194,1047.30658 537.288906,1047.30658 503.175174,1013.19285 C469.061442,979.07912 469.061442,923.769832 503.175174,889.6561 C529.656866,863.174407 568.911115,857.249833 601.107846,871.882378 L961.768376,511.221849 L525,74.4534727 L88.2316239,511.221849 L284.790986,707.781211 L359.341965,633.230231 C350.447974,588.510225 346.609227,508.425385 409.743872,445.29074 C502.510021,352.524591 681.195894,355.025955 681.195894,355.025955 C681.195894,355.025955 683.697258,533.711828 590.931109,626.477977 C527.796464,689.612622 447.711624,685.773875 402.991617,676.879884 L321.164359,758.707142 C301.150969,778.720532 268.702854,778.720532 248.689464,758.707142 L248.526353,758.870253 L42.0568661,552.400766 C19.314378,529.658278 19.314378,492.78542 42.0568661,470.042931 L483.821083,28.2787149 C506.563571,5.53622682 543.436429,5.53622682 566.178917,28.2787149 L1007.94313,470.042931 C1030.68562,492.78542 1030.68562,529.658278 1007.94313,552.400766 L644.671639,915.672261 C659.067313,947.791311 653.080744,986.824034 626.711926,1013.19285 Z" id="Icon" fill="#FBF9FF"></path>
        </g>
    </g>
</svg>