<?xml version="1.0" encoding="UTF-8"?>
<svg width="2514px" height="800px" viewBox="0 0 2514 800" version="1.1" xmlns="http://www.w3.org/2000/svg" xmlns:xlink="http://www.w3.org/1999/xlink">
    <!-- Generator: Sketch 52.6 (67491) - http://www.bohemiancoding.com/sketch -->
    <title>Tania_Light</title>
    <desc>Created with Sketch.</desc>
    <g id="Tania_Light" stroke="none" stroke-width="1" fill="none" fill-rule="evenodd">
        <path d="M1238.19714,175.609756 L1238.19714,275.772358 L1121.1289,275.772358 L1121.1289,630.894309 L1017.06824,630.894309 L1017.06824,275.772358 L900,275.772358 L900,175.609756 L1238.19714,175.609756 Z M1441.7658,305.691057 L1539.32266,305.691057 L1539.32266,630.894309 L1441.7658,630.894309 L1441.7658,600.325203 C1420.30329,625.04065 1388.43471,640 1344.85931,640 C1259.65965,640 1189.4187,565.203252 1189.4187,468.292683 C1189.4187,371.382114 1259.65965,296.585366 1344.85931,296.585366 C1388.43471,296.585366 1420.30329,311.544715 1441.7658,336.260163 L1441.7658,305.691057 Z M1364.37068,547.642276 C1409.24684,547.642276 1441.7658,517.073171 1441.7658,468.292683 C1441.7658,419.512195 1409.24684,388.943089 1364.37068,388.943089 C1319.49452,388.943089 1286.97557,419.512195 1286.97557,468.292683 C1286.97557,517.073171 1319.49452,547.642276 1364.37068,547.642276 Z M1785.16596,296.585366 C1850.85425,296.585366 1906.78686,343.414634 1906.78686,431.219512 L1906.78686,630.894309 L1809.22999,630.894309 L1809.22999,445.528455 C1809.22999,405.203252 1783.86521,386.341463 1752.64701,386.341463 C1716.87616,386.341463 1692.16175,407.154472 1692.16175,453.333333 L1692.16175,630.894309 L1594.60489,630.894309 L1594.60489,305.691057 L1692.16175,305.691057 L1692.16175,336.260163 C1709.72199,312.195122 1742.24094,296.585366 1785.16596,296.585366 Z M2006.29486,277.073171 C1974.42628,277.073171 1947.76074,250.406504 1947.76074,218.536585 C1947.76074,186.666667 1974.42628,160 2006.29486,160 C2038.16344,160 2064.82898,186.666667 2064.82898,218.536585 C2064.82898,250.406504 2038.16344,277.073171 2006.29486,277.073171 Z M1957.51643,630.894309 L1957.51643,305.691057 L2055.07329,305.691057 L2055.07329,630.894309 L1957.51643,630.894309 Z M2346.44313,305.691057 L2444,305.691057 L2444,630.894309 L2346.44313,630.894309 L2346.44313,600.325203 C2324.98062,625.04065 2293.11205,640 2249.53665,640 C2164.33698,640 2094.09604,565.203252 2094.09604,468.292683 C2094.09604,371.382114 2164.33698,296.585366 2249.53665,296.585366 C2293.11205,296.585366 2324.98062,311.544715 2346.44313,336.260163 L2346.44313,305.691057 Z M2269.04802,547.642276 C2313.92418,547.642276 2346.44313,517.073171 2346.44313,468.292683 C2346.44313,419.512195 2313.92418,388.943089 2269.04802,388.943089 C2224.17186,388.943089 2191.65291,419.512195 2191.65291,468.292683 C2191.65291,517.073171 2224.17186,547.642276 2269.04802,547.642276 Z" id="Tania" fill="#F9FAFC"></path>
        <g id="Icon">
            <rect id="Bound" fill-opacity="0" fill="#D8D8D8" x="0" y="0" width="800" height="800"></rect>
            <path d="M407.187109,438.812891 L551.993928,294.006072 C551.993928,294.006072 386.336994,291.687095 300.334918,377.689171 C214.332843,463.691246 262.380289,583.619711 262.380289,583.619711 L407.187109,438.812891 L262.380289,583.619711 C262.380289,583.619711 382.308754,631.667157 468.310829,545.665082 C554.312905,459.663006 551.993928,294.006072 551.993928,294.006072 L407.187109,438.812891 Z" id="Leaf" fill="#F9FAFC"></path>
            <polyline id="Line" stroke="#F9FAFC" stroke-width="42" stroke-linecap="square" stroke-linejoin="round" points="100 415 100 100 700 100 700 700 143.5 700 271.75 571.75"></polyline>
            <circle id="Dot" fill="#F9FAFC" cx="100" cy="445" r="35"></circle>
        </g>
    </g>
</svg>