<?xml version="1.0" encoding="UTF-8"?>
<svg width="1000px" height="1000px" viewBox="0 0 1000 1000" version="1.1" xmlns="http://www.w3.org/2000/svg" xmlns:xlink="http://www.w3.org/1999/xlink">
    <!-- Generator: Sketch 53.2 (72643) - https://sketchapp.com -->
    <title>Github</title>
    <desc>Created with Sketch.</desc>
    <g id="Github" stroke="none" stroke-width="1" fill="none" fill-rule="evenodd">
        <path d="M234.045238,175.703125 C530.855013,215.03923 484.819908,7.18215296 802.147505,141.92161 C1154.78813,291.655218 759.998045,532.274774 648.329344,601.917538 C502.97007,692.571603 560.083115,916.640625 352.44438,916.640625 C-83.9618704,916.640625 -20.8524954,141.92161 234.045238,175.703125 Z" id="Path-11" fill-opacity="0.1" fill="#8C3DE0" transform="translate(489.573752, 506.264337) scale(-1, 1) translate(-489.573752, -506.264337) "></path>
        <path d="M499.969362,259.999877 C364.642274,259.999877 254.897734,370.173346 254.897734,506.082552 C254.897734,614.785407 325.119533,707.005135 422.547684,739.573098 C434.802797,741.840294 439.275914,734.242124 439.275914,727.716276 C439.275914,721.86446 439.061449,706.392379 438.938898,685.865064 C370.76983,700.724389 356.370072,652.868172 356.370072,652.868172 C345.248557,624.436309 329.16372,616.868776 329.16372,616.868776 C306.890052,601.61116 330.818161,601.917538 330.818161,601.917538 C355.420301,603.663892 368.349445,627.285623 368.349445,627.285623 C390.224823,664.878183 425.734013,654.032408 439.704843,647.721024 C441.910763,631.820015 448.252784,620.974239 455.268836,614.816045 C400.856133,608.596575 343.624754,587.487142 343.624754,493.214683 C343.624754,466.345347 353.183743,444.378057 368.870288,427.159622 C366.327352,420.940152 357.932599,395.909084 371.260035,362.054333 C371.260035,362.054333 391.848625,355.436572 438.663158,387.269229 C458.210064,381.815703 479.166307,379.088941 500.030638,378.997027 C520.833693,379.119578 541.820574,381.815703 561.398118,387.299866 C608.182013,355.46721 628.739965,362.084971 628.739965,362.084971 C642.098039,395.970359 633.703286,420.97079 631.190988,427.19026 C646.908171,444.408694 656.375246,466.375985 656.375246,493.245321 C656.375246,587.762882 599.082591,608.565937 544.486061,614.662856 C553.279105,622.261026 561.122378,637.27354 561.122378,660.22124 C561.122378,693.126219 560.816,719.658539 560.816,727.716276 C560.816,734.3034 565.227841,741.962846 577.666781,739.542461 C674.941742,706.943859 745.102266,614.754769 745.102266,506.082552 C745.102266,370.173346 635.357726,259.999877 499.969362,259.999877 Z" id="Path" fill="#502085" fill-rule="nonzero"></path>
    </g>
</svg>