<?xml version="1.0" encoding="UTF-8"?>
<svg width="2438px" height="800px" viewBox="0 0 2438 800" version="1.1" xmlns="http://www.w3.org/2000/svg" xmlns:xlink="http://www.w3.org/1999/xlink">
    <!-- Generator: Sketch 53.2 (72643) - https://sketchapp.com -->
    <title>Tania_Dark</title>
    <desc>Created with Sketch.</desc>
    <g id="Tania_Dark" stroke="none" stroke-width="1" fill="none" fill-rule="evenodd">
        <g id="Icon">
            <rect id="Bound" x="0" y="0" width="800" height="800"></rect>
            <path d="M373.333333,687.810486 L373.333333,520 L413.333333,520 L413.333333,653.333333 L652.524531,414.142136 C660.335017,406.33165 660.335017,393.66835 652.524531,385.857864 L414.142136,147.475469 C406.33165,139.664983 393.66835,139.664983 385.857864,147.475469 L147.475469,385.857864 C139.664983,393.66835 139.664983,406.33165 147.475469,414.142136 L266.666667,533.333333 L266.666667,586.666667 L103.570226,423.570226 C90.5527496,410.55275 90.5527496,389.44725 103.570226,376.429774 L376.429774,103.570226 C389.44725,90.5527496 410.55275,90.5527496 423.570226,103.570226 L696.429774,376.429774 C709.44725,389.44725 709.44725,410.55275 696.429774,423.570226 L426.666667,693.333333 L413.333333,706.666667 C405.969537,714.030463 394.030463,714.030463 386.666667,706.666667 L377.238576,697.238576 C374.738091,694.738091 373.333333,691.346706 373.333333,687.810486 Z" id="Path" fill="#502085"></path>
            <path d="M400,566.666667 C471.111111,548.888889 506.666667,513.333333 506.666667,460 C506.666667,406.666667 471.111111,331.111111 400,233.333333 C328.888889,331.111111 293.333333,406.666667 293.333333,460 C293.333333,513.333333 328.888889,548.888889 400,566.666667 Z" id="Path-2" fill="#502085"></path>
            <circle id="Oval" fill="#502085" cx="273.333333" cy="563.333333" r="33.3333333"></circle>
        </g>
        <path d="M1131.81435,190 L1131.81435,219.535865 L1001.85654,219.535865 L1001.85654,603.50211 L969.957806,603.50211 L969.957806,219.535865 L840,219.535865 L840,190 L1131.81435,190 Z M1450.80169,308.14346 L1480.92827,308.14346 L1480.92827,603.50211 L1450.80169,603.50211 L1450.80169,536.751055 C1425.99156,581.054852 1380.50633,610 1323.79747,610 C1239.91561,610 1170.80169,543.248945 1170.80169,455.822785 C1170.80169,368.396624 1239.91561,301.64557 1323.79747,301.64557 C1380.50633,301.64557 1425.99156,330.590717 1450.80169,374.894515 L1450.80169,308.14346 Z M1326.16034,581.64557 C1396.4557,581.64557 1450.80169,526.118143 1450.80169,455.822785 C1450.80169,385.527426 1396.4557,330 1326.16034,330 C1255.86498,330 1200.92827,385.527426 1200.92827,455.822785 C1200.92827,526.118143 1255.86498,581.64557 1326.16034,581.64557 Z M1707.173,301.64557 C1777.46835,301.64557 1821.77215,348.312236 1821.77215,419.78903 L1821.77215,603.50211 L1791.64557,603.50211 L1791.64557,419.78903 C1791.64557,365.443038 1760.33755,330 1704.81013,330 C1646.91983,330 1601.4346,367.805907 1601.4346,447.552743 L1601.4346,603.50211 L1571.89873,603.50211 L1571.89873,308.14346 L1601.4346,308.14346 L1601.4346,364.261603 C1623.88186,320.548523 1661.68776,301.64557 1707.173,301.64557 Z M1919.83122,236.666667 C1906.83544,236.666667 1896.20253,226.033755 1896.20253,213.037975 C1896.20253,200.632911 1906.83544,190 1919.83122,190 C1932.827,190 1943.45992,200.632911 1943.45992,213.037975 C1943.45992,226.033755 1932.827,236.666667 1919.83122,236.666667 Z M1905.06329,603.50211 L1905.06329,308.14346 L1934.59916,308.14346 L1934.59916,603.50211 L1905.06329,603.50211 Z M2285.48523,308.14346 L2315.61181,308.14346 L2315.61181,603.50211 L2285.48523,603.50211 L2285.48523,536.751055 C2260.67511,581.054852 2215.18987,610 2158.48101,610 C2074.59916,610 2005.48523,543.248945 2005.48523,455.822785 C2005.48523,368.396624 2074.59916,301.64557 2158.48101,301.64557 C2215.18987,301.64557 2260.67511,330.590717 2285.48523,374.894515 L2285.48523,308.14346 Z M2160.84388,581.64557 C2231.13924,581.64557 2285.48523,526.118143 2285.48523,455.822785 C2285.48523,385.527426 2231.13924,330 2160.84388,330 C2090.54852,330 2035.61181,385.527426 2035.61181,455.822785 C2035.61181,526.118143 2090.54852,581.64557 2160.84388,581.64557 Z" id="Tania" stroke="#502085" stroke-width="35.443038" fill="#502085" fill-rule="nonzero"></path>
    </g>
</svg>