<?xml version="1.0" encoding="UTF-8"?>
<svg width="1000px" height="1000px" viewBox="0 0 1000 1000" version="1.1" xmlns="http://www.w3.org/2000/svg" xmlns:xlink="http://www.w3.org/1999/xlink">
    <!-- Generator: Sketch 53.2 (72643) - https://sketchapp.com -->
    <title>Plugin</title>
    <desc>Created with Sketch.</desc>
    <g id="Plugin" stroke="none" stroke-width="1" fill="none" fill-rule="evenodd">
        <path d="M110.842511,318.484388 C309.966054,86.703125 365.657517,30.96875 611.446333,165.34829 C925.650583,337.132439 955.262451,702.012454 843.59375,771.655218 C698.234477,862.309283 697.101075,628.462934 433.777412,706.797603 C109.54505,803.251656 -12.9992194,462.637069 110.842511,318.484388 Z" id="Path-11" fill-opacity="0.1" fill="#8C3DE0"></path>
        <g id="Group" transform="translate(309.966054, 291.655218)">
            <path d="M262.193763,201.193455 L263.099134,201.193455 L263.099134,29.3706294 C263.099134,13.1496787 249.949455,7.69217015e-16 233.728504,-1.0658141e-14 L29.3706294,-3.55271368e-15 C13.1496787,-5.72973377e-16 1.16330359e-12,13.1496787 1.16529009e-12,29.3706294 L1.1688428e-12,233.728504 C1.1564222e-12,249.949455 13.1496787,263.099134 29.3706294,263.099134 L232.146294,263.099134 L247.622714,263.099134 L247.622714,239.884504 L247.622714,224.408085 L247.622714,215.764504 C247.622714,207.716766 254.146025,201.193455 262.193763,201.193455 Z" id="Path" fill="#502085" fill-rule="nonzero"></path>
            <circle id="Oval" fill="#85848C" fill-rule="nonzero" cx="131.549567" cy="131.549567" r="100.596728"></circle>
            <circle id="Oval" fill="#212325" fill-rule="nonzero" cx="92.8585178" cy="131.549567" r="23.2146294"></circle>
            <circle id="Oval" fill="#212325" fill-rule="nonzero" cx="170.240616" cy="131.549567" r="23.2146294"></circle>
            <path d="M131.549567,30.9528393 C128.934052,30.9528393 126.372704,31.1462945 123.811357,31.347488 L123.811357,54.1674687 C123.811357,58.4466987 127.270337,61.9056785 131.549567,61.9056785 C135.828797,61.9056785 139.287777,58.4466987 139.287777,54.1674687 L139.287777,31.347488 C136.726429,31.1462945 134.165082,30.9528393 131.549567,30.9528393 Z" id="Path" fill="#DCDBE4" fill-rule="nonzero"></path>
            <path d="M131.549567,201.193455 C127.270337,201.193455 123.811357,204.652435 123.811357,208.931665 L123.811357,231.751646 C126.372704,231.952839 128.934052,232.146294 131.549567,232.146294 C134.165082,232.146294 136.726429,231.952839 139.287777,231.751646 L139.287777,208.931665 C139.287777,204.652435 135.828797,201.193455 131.549567,201.193455 Z" id="Path" fill="#DCDBE4" fill-rule="nonzero"></path>
            <path d="M325.103346,356.621268 C343.159169,450.640302 321.234241,490.58579 259.328563,476.45773 C166.470045,455.265641 243.852143,385.651349 135.517206,356.621268 C63.2939142,337.26788 40.0792848,368.414198 65.8733175,450.060222" id="Path-13" stroke="#2E2E35" stroke-width="8.39160839" stroke-linecap="round" stroke-linejoin="round"></path>
            <rect id="Rectangle" fill="#6C2CB1" fill-rule="nonzero" x="309.528393" y="340.481232" width="38.6910491" height="30.9528393"></rect>
            <path d="M371.434071,201.193455 L371.434071,216.669875 L348.219442,216.669875 L348.219442,201.193455 L309.528393,201.193455 L309.528393,216.669875 L286.313763,216.669875 L286.313763,201.193455 L262.193763,201.193455 C254.146025,201.193455 247.622714,207.716766 247.622714,215.764504 L247.622714,299.963965 C247.622714,322.342868 265.761078,340.481232 288.139981,340.481232 L369.607854,340.481232 C391.986756,340.481232 410.12512,322.342868 410.12512,299.963965 L410.12512,215.501405 C410.12512,207.600693 403.717882,201.193455 395.81717,201.193455 L371.434071,201.193455 Z" id="Path" fill="#502085" fill-rule="nonzero"></path>
            <path d="M309.528393,216.669875 L286.313763,216.669875 L286.313763,127.680462 C286.313763,121.273224 291.51384,116.073147 297.921078,116.073147 L297.921078,116.073147 C304.328316,116.073147 309.528393,121.273224 309.528393,127.680462 L309.528393,216.669875 Z" id="Path" fill="#2E2E35" fill-rule="nonzero"></path>
            <path d="M371.434071,216.669875 L348.219442,216.669875 L348.219442,127.680462 C348.219442,121.273224 353.419519,116.073147 359.826756,116.073147 L359.826756,116.073147 C366.233994,116.073147 371.434071,121.273224 371.434071,127.680462 L371.434071,216.669875 Z" id="Path" fill="#2E2E35" fill-rule="nonzero"></path>
            <path d="M395.81717,201.193455 L371.434071,201.193455 L371.434071,216.669875 L348.219442,216.669875 L348.219442,201.193455 L309.528393,201.193455 L309.528393,216.669875 L286.313763,216.669875 L286.313763,201.193455 L262.193763,201.193455 C254.146025,201.193455 247.622714,207.716766 247.622714,215.764504 L247.622714,217.838345 C247.622714,225.739057 254.029952,232.146294 261.930664,232.146294 L286.313763,232.146294 L309.528393,232.146294 L348.219442,232.146294 L371.434071,232.146294 L395.554071,232.146294 C403.601809,232.146294 410.12512,225.622984 410.12512,217.575245 L410.12512,215.501405 C410.12512,207.600693 403.717882,201.193455 395.81717,201.193455 Z" id="Path" fill="#6C2CB1" fill-rule="nonzero"></path>
        </g>
    </g>
</svg>