<?xml version="1.0" encoding="UTF-8"?>
<svg width="800px" height="800px" viewBox="0 0 800 800" version="1.1" xmlns="http://www.w3.org/2000/svg" xmlns:xlink="http://www.w3.org/1999/xlink">
    <!-- Generator: Sketch 53.2 (72643) - https://sketchapp.com -->
    <title>Tania_Icon-Light</title>
    <desc>Created with Sketch.</desc>
    <g id="Tania_Icon-Light" stroke="none" stroke-width="1" fill="none" fill-rule="evenodd">
        <g id="Icon">
            <rect id="Bound" x="0" y="0" width="800" height="800"></rect>
            <path d="M373.333333,687.810486 L373.333333,520 L413.333333,520 L413.333333,653.333333 L652.524531,414.142136 C660.335017,406.33165 660.335017,393.66835 652.524531,385.857864 L414.142136,147.475469 C406.33165,139.664983 393.66835,139.664983 385.857864,147.475469 L147.475469,385.857864 C139.664983,393.66835 139.664983,406.33165 147.475469,414.142136 L266.666667,533.333333 L266.666667,586.666667 L103.570226,423.570226 C90.5527496,410.55275 90.5527496,389.44725 103.570226,376.429774 L376.429774,103.570226 C389.44725,90.5527496 410.55275,90.5527496 423.570226,103.570226 L696.429774,376.429774 C709.44725,389.44725 709.44725,410.55275 696.429774,423.570226 L426.666667,693.333333 L413.333333,706.666667 C405.969537,714.030463 394.030463,714.030463 386.666667,706.666667 L377.238576,697.238576 C374.738091,694.738091 373.333333,691.346706 373.333333,687.810486 Z" id="Path" fill="#F9FAFC"></path>
            <path d="M400,566.666667 C471.111111,548.888889 506.666667,513.333333 506.666667,460 C506.666667,406.666667 471.111111,331.111111 400,233.333333 C328.888889,331.111111 293.333333,406.666667 293.333333,460 C293.333333,513.333333 328.888889,548.888889 400,566.666667 Z" id="Path-2" fill="#F9FAFC"></path>
            <circle id="Oval" fill="#F9FAFC" cx="273.333333" cy="563.333333" r="33.3333333"></circle>
        </g>
    </g>
</svg>