<?xml version="1.0" encoding="UTF-8"?>
<svg width="1000px" height="1000px" viewBox="0 0 1000 1000" version="1.1" xmlns="http://www.w3.org/2000/svg" xmlns:xlink="http://www.w3.org/1999/xlink">
    <!-- Generator: Sketch 53.2 (72643) - https://sketchapp.com -->
    <title>IoT</title>
    <desc>Created with Sketch.</desc>
    <g id="IoT" stroke="none" stroke-width="1" fill="none" fill-rule="evenodd">
        <path d="M203.272511,204.62134 C466.030323,331.528041 610.194386,0.957277249 791.733448,217.566652 C1169.03922,667.761589 660.199024,516.416075 548.530323,586.05884 C403.17105,676.712904 325.050254,961.821271 220.350636,818.480715 C33.7881359,563.064572 15.4622118,113.912769 203.272511,204.62134 Z" id="Path-11" fill-opacity="0.1" fill="#8C3DE0"></path>
        <g id="Group" transform="translate(253.699284, 260.000000)">
            <path d="M269.391408,207.885834 L223.210024,207.885834 C218.959442,207.885834 215.513126,212.571343 215.513126,218.35031 L215.513126,466.787982 C215.513126,474.063905 221.411428,479.962206 228.687351,479.962206 L263.914081,479.962206 C271.190004,479.962206 277.088305,474.063905 277.088305,466.787982 L277.088305,218.35031 C277.088305,212.571343 273.64199,207.885834 269.391408,207.885834 Z" id="Path" fill="#2E2E35"></path>
            <path d="M415.632458,100.093179 L392.541766,100.093179 C388.291184,100.093179 384.844869,103.540649 384.844869,107.792655 L384.844869,138.590556 C384.844869,142.842561 388.291184,146.290031 392.541766,146.290031 L415.632458,146.290031 C419.88304,146.290031 423.329356,142.842561 423.329356,138.590556 L423.329356,107.792655 C423.329356,103.540649 419.88304,100.093179 415.632458,100.093179 Z" id="Path" fill="#8C3DE0"></path>
            <path d="M392.541766,84.6942286 L346.360382,84.6942286 C342.1098,84.6942286 338.663484,88.1416985 338.663484,92.3937039 L338.663484,153.989506 C338.663484,158.241512 342.1098,161.688982 346.360382,161.688982 L392.541766,161.688982 C396.792348,161.688982 400.238663,158.241512 400.238663,153.989506 L400.238663,92.3937039 C400.238663,88.1416985 396.792348,84.6942286 392.541766,84.6942286 Z" id="Path" fill="#7A30CA"></path>
            <path d="M100.059666,100.093179 L76.9689737,100.093179 C72.718392,100.093179 69.2720764,103.540649 69.2720764,107.792655 L69.2720764,138.590556 C69.2720764,142.842561 72.718392,146.290031 76.9689737,146.290031 L100.059666,146.290031 C104.310248,146.290031 107.756563,142.842561 107.756563,138.590556 L107.756563,107.792655 C107.756563,103.540649 104.310248,100.093179 100.059666,100.093179 Z" id="Path" fill="#8C3DE0"></path>
            <path d="M146.24105,84.6942286 L100.059666,84.6942286 C95.8090841,84.6942286 92.3627685,88.1416985 92.3627685,92.3937039 L92.3627685,153.989506 C92.3627685,158.241512 95.8090841,161.688982 100.059666,161.688982 L146.24105,161.688982 C150.491632,161.688982 153.937947,158.241512 153.937947,153.989506 L153.937947,92.3937039 C153.937947,88.1416985 150.491632,84.6942286 146.24105,84.6942286 Z" id="Path" fill="#7A30CA"></path>
            <path d="M246.300716,0 C178.396643,0 123.150358,55.2647887 123.150358,123.191605 C123.150358,191.118422 178.396643,246.38321 246.300716,246.38321 C314.204789,246.38321 369.451074,191.118422 369.451074,123.191605 C369.451074,55.2647887 314.204789,0 246.300716,0 Z" id="Path" fill="#5C2795"></path>
            <path d="M246.300716,38.4973766 C199.540562,38.4973766 161.634845,76.4157893 161.634845,123.191605 C161.634845,169.967421 199.540562,207.885834 246.300716,207.885834 C293.06087,207.885834 330.966587,169.967421 330.966587,123.191605 L246.300716,123.191605 L246.300716,38.4973766 Z" id="Path" fill="#8C3DE0"></path>
            <path d="M246.300716,38.4973766 L246.300716,123.191605 L330.966587,123.191605 C330.966587,76.4157893 293.06087,38.4973766 246.300716,38.4973766 Z" id="Path" fill="#F9FAFC"></path>
            <path d="M246.300716,215.585309 C195.372661,215.585309 153.937947,174.136718 153.937947,123.191605 C153.937947,72.2464926 195.372661,30.7979013 246.300716,30.7979013 C297.228771,30.7979013 338.663484,72.2464926 338.663484,123.191605 C338.663484,174.136718 297.228771,215.585309 246.300716,215.585309 Z M246.300716,46.1968519 C203.858791,46.1968519 169.331742,80.7354654 169.331742,123.191605 C169.331742,165.647745 203.858791,200.186358 246.300716,200.186358 C288.742641,200.186358 323.26969,165.647745 323.26969,123.191605 C323.26969,80.7354654 288.742641,46.1968519 246.300716,46.1968519 Z" id="Shape" fill="#7A30CA" fill-rule="nonzero"></path>
            <path d="M234.75537,119.341868 C232.786047,119.341868 230.816723,118.589966 229.313423,117.086162 L206.222731,93.9877359 C203.21613,90.9801283 203.21613,86.1078041 206.222731,83.1001966 C209.229331,80.092589 214.100024,80.092589 217.106625,83.1001966 L240.197317,106.198623 C243.203917,109.20623 243.203917,114.078554 240.197317,117.086162 C238.694017,118.589966 236.724693,119.341868 234.75537,119.341868 Z" id="Path" fill="#212325"></path>
            <path d="M246.300716,107.792655 C237.814586,107.792655 230.906921,114.702633 230.906921,123.191605 C230.906921,131.680577 237.814586,138.590556 246.300716,138.590556 C254.786846,138.590556 261.694511,131.680577 261.694511,123.191605 C261.694511,114.702633 254.786846,107.792655 246.300716,107.792655 Z" id="Path" fill="#212325"></path>
            <path d="M46.1813842,130.891081 L38.4844869,130.891081 C34.2339051,130.891081 30.7875895,127.443611 30.7875895,123.191605 C30.7875895,118.9396 34.2339051,115.49213 38.4844869,115.49213 L46.1813842,115.49213 C50.431966,115.49213 53.8782816,118.9396 53.8782816,123.191605 C53.8782816,127.443611 50.431966,130.891081 46.1813842,130.891081 Z" id="Path" fill="#6AD0DF"></path>
            <path d="M15.3937947,130.891081 L7.69689737,130.891081 C3.44631562,130.891081 0,127.443611 0,123.191605 C0,118.9396 3.44631562,115.49213 7.69689737,115.49213 L15.3937947,115.49213 C19.6443765,115.49213 23.0906921,118.9396 23.0906921,123.191605 C23.0906921,127.443611 19.6443765,130.891081 15.3937947,130.891081 Z" id="Path" fill="#6AD0DF"></path>
            <path d="M57.4523783,103.668473 C55.4830549,103.668473 53.5137315,102.916571 52.0104313,101.412767 L46.5684843,95.9689976 C43.5618838,92.9613901 43.5618838,88.0890658 46.5684843,85.0814583 C49.5750848,82.0738507 54.4457777,82.0738507 57.4523783,85.0814583 L62.8943252,90.5252279 C65.9009258,93.5328355 65.9009258,98.4051597 62.8943252,101.412767 C61.394783,102.916571 59.4254596,103.668473 57.4523783,103.668473 Z" id="Path" fill="#6AD0DF"></path>
            <path d="M35.6845904,81.8933943 C33.711508,81.8933943 31.7421857,81.1414924 30.2388854,79.6376886 L24.7969384,74.193919 C21.7940959,71.1863114 21.7940959,66.3102279 24.7969384,63.3026204 C27.8035389,60.2987721 32.6779898,60.2987721 35.6845904,63.3026204 L41.1265373,68.74639 C44.1293799,71.7539976 44.1293799,76.6300811 41.1265373,79.6376886 C39.6232371,81.1414924 37.6539137,81.8933943 35.6845904,81.8933943 Z" id="Path" fill="#6AD0DF"></path>
            <path d="M52.0104313,163.557458 C50.0411079,163.557458 48.0717846,162.805556 46.5684843,161.301752 C43.5618838,158.294145 43.5618838,153.42182 46.5684843,150.414213 L52.0104313,144.970443 C55.0170318,141.962836 59.8877247,141.962836 62.8943252,144.970443 C65.9009258,147.978051 65.9009258,152.850375 62.8943252,155.857982 L57.4523783,161.301752 C55.949078,162.805556 53.9797546,163.557458 52.0104313,163.557458 Z" id="Path" fill="#6AD0DF"></path>
            <path d="M30.2426434,185.332536 C28.2695611,185.332536 26.3002387,184.580635 24.7969384,183.08059 C21.7940959,180.072982 21.7940959,175.196899 24.7969384,172.189291 L30.2388854,166.745522 C33.2454859,163.741673 38.1199368,163.741673 41.1265373,166.745522 C44.1293799,169.753129 44.1293799,174.629213 41.1265373,177.63682 L35.6845904,183.08059 C34.1812901,184.580635 32.2119667,185.332536 30.2426434,185.332536 Z" id="Path" fill="#6AD0DF"></path>
            <path d="M454.116945,130.891081 L446.420048,130.891081 C442.169466,130.891081 438.72315,127.443611 438.72315,123.191605 C438.72315,118.9396 442.169466,115.49213 446.420048,115.49213 L454.116945,115.49213 C458.367527,115.49213 461.813842,118.9396 461.813842,123.191605 C461.813842,127.443611 458.367527,130.891081 454.116945,130.891081 Z" id="Path" fill="#6AD0DF"></path>
            <path d="M484.904535,130.891081 L477.207637,130.891081 C472.957055,130.891081 469.51074,127.443611 469.51074,123.191605 C469.51074,118.9396 472.957055,115.49213 477.207637,115.49213 L484.904535,115.49213 C489.155116,115.49213 492.601432,118.9396 492.601432,123.191605 C492.601432,127.443611 489.155116,130.891081 484.904535,130.891081 Z" id="Path" fill="#6AD0DF"></path>
            <path d="M435.149054,103.668473 C433.175972,103.668473 431.206649,102.916571 429.707107,101.412767 C426.700506,98.4051597 426.700506,93.5328355 429.707107,90.5252279 L435.149054,85.0814583 C438.155654,82.0738507 443.026347,82.0738507 446.032948,85.0814583 C449.039548,88.0890658 449.039548,92.9613901 446.032948,95.9689976 L440.591001,101.412767 C439.0877,102.916571 437.118377,103.668473 435.149054,103.668473 Z" id="Path" fill="#6AD0DF"></path>
            <path d="M456.916842,81.8933943 C454.947518,81.8933943 452.978195,81.1414924 451.474895,79.6339293 C448.468294,76.6300811 448.468294,71.7539976 451.474895,68.74639 L456.916842,63.3026204 C459.923442,60.2987721 464.797893,60.2987721 467.804494,63.3063796 C470.807336,66.3102279 470.807336,71.1863114 467.800736,74.193919 L462.358789,79.6376886 C460.859246,81.1414924 458.886165,81.8933943 456.916842,81.8933943 Z" id="Path" fill="#6AD0DF"></path>
            <path d="M440.591001,163.557458 C438.621677,163.557458 436.652354,162.805556 435.149054,161.301752 L429.707107,155.857982 C426.700506,152.850375 426.700506,147.978051 429.707107,144.970443 C432.713707,141.962836 437.5844,141.962836 440.591001,144.970443 L446.032948,150.414213 C449.039548,153.42182 449.039548,158.294145 446.032948,161.301752 C444.529647,162.805556 442.560324,163.557458 440.591001,163.557458 Z" id="Path" fill="#6AD0DF"></path>
            <path d="M462.358789,185.332536 C460.389465,185.332536 458.420142,184.584394 456.916842,183.08059 L451.474895,177.63682 C448.468294,174.629213 448.468294,169.753129 451.474895,166.749281 C454.481495,163.741673 459.352188,163.737914 462.358789,166.745522 L467.800736,172.189291 C470.807336,175.196899 470.807336,180.072982 467.804494,183.076831 C466.301193,184.580635 464.331871,185.332536 462.358789,185.332536 Z" id="Path" fill="#6AD0DF"></path>
        </g>
    </g>
</svg>